<svg version="1.1" id="Capa_1" xmlns="http://www.w3.org/2000/svg" xmlns:xlink="http://www.w3.org/1999/xlink" x="0px" y="0px"
	 viewBox="0 0 31.49 31.49" style="enable-background:new 0 0 31.49 31.49;" xml:space="preserve">
<path style="fill:#fff;" d="M21.205,5.007c-0.429-0.444-1.143-0.444-1.587,0c-0.429,0.429-0.429,1.143,0,1.571l8.047,8.047H1.111
	C0.492,14.626,0,15.118,0,15.737c0,0.619,0.492,1.127,1.111,1.127h26.554l-8.047,8.032c-0.429,0.444-0.429,1.159,0,1.587
	c0.444,0.444,1.159,0.444,1.587,0l9.952-9.952c0.444-0.429,0.444-1.143,0-1.571L21.205,5.007z"/>
</svg>

<svg _ngcontent-c16="" class="more-white-btn__svg">
	<use _ngcontent-c16="" xlink:href="assets/symbol-defs.svg#icon-more-white">
		
	</use>
</svg>

<svg id="icon-more-white" viewBox="0 0 100 30">
            <title>more</title>
            <path fill="#fff" style="fill: var(--color1, #fff)" d="M73.387 16.64c-0.213 0-0.64-0.213-0.64-0.64s0.427-0.64 0.64-0.64h25.387l-5.12-5.333c-0.427-0.213-0.427-0.64 0-0.853 0.213-0.213 0.64-0.213 0.853 0l6.187 6.4h0.213v0.853c0 0 0 0-0.213 0v0 0 0 0 0 0l-6.187 6.4c-0.213 0.213-0.64 0.213-0.853 0-0.427-0.213-0.427-0.64 0-0.853l5.12-5.333h-25.387zM100.907 15.787v0 0zM100.907 16.213v0 0 0z"></path>
            <path fill="#fff" style="fill: var(--color1, #fff)" d="M17.707 4.053h59.52c1.493 0 3.2 0.213 4.48 0.853 1.493 0.64 2.773 1.493 4.053 2.56 0.213 0.213 0.213 0.64 0 1.067-0.213 0.213-0.64 0.213-1.067 0-0.853-1.067-2.133-1.92-3.413-2.347-1.28-0.64-2.56-0.853-4.053-0.853h-59.52c-2.987 0-5.76 1.067-7.68 3.2-1.92 1.92-2.987 4.48-2.987 7.467s1.067 5.547 2.987 7.467c1.92 2.133 4.693 3.2 7.68 3.2h59.52c1.493 0 2.773-0.213 4.053-0.853 1.28-0.427 2.56-1.28 3.413-2.347 0.427-0.213 0.853-0.213 1.067 0 0.213 0.427 0.213 0.853 0 1.067-1.28 1.067-2.56 1.92-4.053 2.56-1.28 0.64-2.987 0.853-4.48 0.853h-59.52c-3.413 0-6.4-1.28-8.533-3.413-2.133-2.347-3.413-5.333-3.413-8.533s1.28-6.187 3.413-8.533c2.133-2.133 5.12-3.413 8.533-3.413z"></path>
            <path fill="#fff" style="fill: var(--color1, #fff)" d="M32.427 17.92c0 0.853-0.213 1.493-0.64 1.92-0.64 0.427-1.493 0.64-2.347 0.64h-2.773v-8.96h5.333v1.067h-4.267v2.773h1.493c0.64 0 1.28 0.213 1.92 0.427 0.427 0 0.853 0.427 1.067 0.64 0.213 0.427 0.213 0.853 0.213 1.493zM27.733 19.627h1.493c0.853 0 1.28-0.213 1.707-0.427 0.213-0.213 0.427-0.64 0.427-1.28s-0.213-1.067-0.427-1.28c-0.427-0.213-1.067-0.213-1.92-0.213h-1.28v3.2zM35.2 20.48h-1.067v-6.613h1.067v6.613zM34.133 11.947c0-0.213 0-0.213 0.213-0.427 0 0 0.213-0.213 0.427-0.213s0.213 0.213 0.427 0.213c0 0.213 0.213 0.213 0.213 0.427s-0.213 0.427-0.213 0.64c-0.213 0-0.213 0.213-0.427 0.213s-0.427-0.213-0.427-0.213-0.213-0.427-0.213-0.64zM42.24 20.48h-0.853v-5.76h-2.133c0 1.493-0.213 2.56-0.427 3.413s-0.427 1.493-0.64 1.92c-0.427 0.427-0.853 0.64-1.28 0.64-0.213 0-0.427-0.213-0.427-0.213v-0.64c0 0 0 0 0.213 0 0.427 0 0.853-0.427 1.067-1.493s0.427-2.56 0.64-4.48h3.84v6.613zM45.44 16.64h2.133c1.707 0 2.56 0.64 2.56 1.92 0 0.64-0.213 1.067-0.64 1.493-0.427 0.213-1.28 0.427-2.133 0.427h-2.987v-6.613h1.067v2.773zM45.44 17.493v2.133h1.92c0.64 0 1.067 0 1.28-0.213s0.427-0.427 0.427-0.853c0-0.427-0.213-0.64-0.427-0.853s-0.64-0.213-1.28-0.213h-1.92zM56.747 19.627h2.987v-5.76h1.067v6.613h-8.96v-6.613h1.067v5.76h2.773v-5.76h1.067v5.76zM65.707 20.693c-1.067 0-1.707-0.427-2.347-1.067-0.64-0.427-0.853-1.28-0.853-2.347s0.213-1.92 0.853-2.56c0.427-0.64 1.28-1.067 2.133-1.067s1.493 0.427 1.92 0.853c0.427 0.64 0.853 1.28 0.853 2.133v0.64h-4.693c0 0.853 0.213 1.493 0.64 1.92s0.853 0.64 1.493 0.64c0.853 0 1.493-0.213 2.133-0.64v1.067c-0.213 0-0.64 0.213-1.067 0.213-0.213 0.213-0.64 0.213-1.067 0.213zM65.493 14.507c-0.64 0-1.067 0.213-1.28 0.64-0.427 0.213-0.64 0.853-0.64 1.493h3.413c0-0.64 0-1.28-0.427-1.493-0.213-0.427-0.64-0.64-1.067-0.64z"></path>
        </svg>